# xmcd CD database file
#
# Track frame offsets:
#	150
#	18669
#	35786
#	53341
#	72134
#	89659
#	105044
#	119894
#	131091
#	143906
#	159029
#	175871
#	192016
#	209976
#
# Disc length: 3002 seconds
#
# Revision: 0
# Processed by: cddbd v1.5.2PL0 Copyright (c) Steve Scherf et al.
# Submitted via: CDex 1.51
#
DISCID=c70bb80e
DTITLE=Antonio Marcos - Romântico
DYEAR=1900
DGENRE=Romanticas (BR)
TTITLE0=MENINA DE TRANÇA
TTITLE1=COMO VAI VOCÊ
TTITLE2=PORQUE CHORA A TARDE
TTITLE3=E NÃO VOU MAIS DEIXAR VOCÊ SÓ
TTITLE4=VOLTE AMOR (TORNERÓ)
TTITLE5=BONECA COBIÇADA
TTITLE6=TODO SUJO DE BATOM
TTITLE7=TEU CARINHO (CHE ROGA)
TTITLE8=MINHA AMIGA, MINHA NAMORADA
TTITLE9=EU VOU TER SEMPRE VOCÊ (YOU´LL NEVER KNOW)
TTITLE10=MEU SEGREDO
TTITLE11=QUERO SER MENINO PRA VOCÊ
TTITLE12=SEMPRE NO MEU CORAÇÃO (ALWAYS IN MY HEART)
TTITLE13=VOCÊ PEDIU E EU JÁ VOU DAQUI
EXTD=
EXTT0=
EXTT1=
EXTT2=
EXTT3=
EXTT4=
EXTT5=
EXTT6=
EXTT7=
EXTT8=
EXTT9=
EXTT10=
EXTT11=
EXTT12=
EXTT13=
PLAYORDER=
